HIERARCHY
ROOT Brekel_Pro_Hands
{
  OFFSET 0.0 0.0 0.0
  CHANNELS 6 Xposition Yposition Zposition Zrotation Xrotation Yrotation
  JOINT LeftHand
  {
    OFFSET 0.000 -26.700 0.000
    CHANNELS 6 Xposition Yposition Zposition Zrotation Xrotation Yrotation
    JOINT LeftHandThumb1
    {
      OFFSET -0.800 -4.350 4.280
      CHANNELS 3 Zrotation Xrotation Yrotation
      JOINT LeftHandThumb2
      {
        OFFSET -0.540 -2.510 0.710
        CHANNELS 3 Zrotation Xrotation Yrotation
        JOINT LeftHandThumb3
        {
          OFFSET 0.000 -2.540 0.000
          CHANNELS 3 Zrotation Xrotation Yrotation
          End Site
          {
            OFFSET 0.000 -2.670 0.000
          }
        }
      }
    }
    JOINT LeftHandIndex1
    {
      OFFSET 0.200 -8.820 3.470
      CHANNELS 3 Zrotation Xrotation Yrotation
      JOINT LeftHandIndex2
      {
        OFFSET 0.000 -4.220 0.150
        CHANNELS 3 Zrotation Xrotation Yrotation
        JOINT LeftHandIndex3
        {
          OFFSET 0.000 -2.650 0.090
          CHANNELS 3 Zrotation Xrotation Yrotation
          End Site
          {
            OFFSET 0.000 -1.960 0.070
          }
        }
      }
    }
    JOINT LeftHandMiddle1
    {
      OFFSET 0.500 -8.810 1.300
      CHANNELS 3 Zrotation Xrotation Yrotation
      JOINT LeftHandMiddle2
      {
        OFFSET 0.000 -4.860 0.000
        CHANNELS 3 Zrotation Xrotation Yrotation
        JOINT LeftHandMiddle3
        {
          OFFSET 0.000 -2.770 0.000
          CHANNELS 3 Zrotation Xrotation Yrotation
          End Site
          {
            OFFSET 0.000 -2.010 0.000
          }
        }
      }
    }
    JOINT LeftHandRing1
    {
      OFFSET 0.380 -8.890 -0.790
      CHANNELS 3 Zrotation Xrotation Yrotation
      JOINT LeftHandRing2
      {
        OFFSET 0.000 -4.540 0.000
        CHANNELS 3 Zrotation Xrotation Yrotation
        JOINT LeftHandRing3
        {
          OFFSET 0.000 -2.300 0.000
          CHANNELS 3 Zrotation Xrotation Yrotation
          End Site
          {
            OFFSET 0.000 -1.920 0.000
          }
        }
      }
    }
    JOINT LeftHandPinky1
    {
      OFFSET -0.310 -8.880 -2.490
      CHANNELS 3 Zrotation Xrotation Yrotation
      JOINT LeftHandPinky2
      {
        OFFSET 0.000 -3.040 0.000
        CHANNELS 3 Zrotation Xrotation Yrotation
        JOINT LeftHandPinky3
        {
          OFFSET 0.000 -1.970 0.000
          CHANNELS 3 Zrotation Xrotation Yrotation
          End Site
          {
            OFFSET 0.000 -1.670 0.000
          }
        }
      }
    }
  }
  JOINT RightHand
  {
    OFFSET 0.000 -26.700 0.000
    CHANNELS 6 Xposition Yposition Zposition Zrotation Xrotation Yrotation
    JOINT RightHandThumb1
    {
      OFFSET 0.800 -4.350 4.280
      CHANNELS 3 Zrotation Xrotation Yrotation
      JOINT RightHandThumb2
      {
        OFFSET 0.540 -2.510 0.710
        CHANNELS 3 Zrotation Xrotation Yrotation
        JOINT RightHandThumb3
        {
          OFFSET 0.000 -2.540 0.090
          CHANNELS 3 Zrotation Xrotation Yrotation
          End Site
          {
            OFFSET 0.000 -2.670 0.090
          }
        }
      }
    }
    JOINT RightHandIndex1
    {
      OFFSET -0.200 -8.820 3.470
      CHANNELS 3 Zrotation Xrotation Yrotation
      JOINT RightHandIndex2
      {
        OFFSET 0.000 -4.220 -0.150
        CHANNELS 3 Zrotation Xrotation Yrotation
        JOINT RightHandIndex3
        {
          OFFSET 0.000 -2.650 -0.090
          CHANNELS 3 Zrotation Xrotation Yrotation
          End Site
          {
            OFFSET 0.000 -1.960 -0.070
          }
        }
      }
    }
    JOINT RightHandMiddle1
    {
      OFFSET -0.500 -8.810 1.310
      CHANNELS 3 Zrotation Xrotation Yrotation
      JOINT RightHandMiddle2
      {
        OFFSET 0.000 -4.860 -0.170
        CHANNELS 3 Zrotation Xrotation Yrotation
        JOINT RightHandMiddle3
        {
          OFFSET 0.000 -2.760 -0.100
          CHANNELS 3 Zrotation Xrotation Yrotation
          End Site
          {
            OFFSET 0.000 -2.000 -0.070
          }
        }
      }
    }
    JOINT RightHandRing1
    {
      OFFSET -0.380 -8.890 -0.790
      CHANNELS 3 Zrotation Xrotation Yrotation
      JOINT RightHandRing2
      {
        OFFSET 0.000 -4.540 -0.160
        CHANNELS 3 Zrotation Xrotation Yrotation
        JOINT RightHandRing3
        {
          OFFSET 0.000 -2.300 -0.080
          CHANNELS 3 Zrotation Xrotation Yrotation
          End Site
          {
            OFFSET 0.000 -1.920 -0.070
          }
        }
      }
    }
    JOINT RightHandPinky1
    {
      OFFSET 0.310 -8.880 -2.490
      CHANNELS 3 Zrotation Xrotation Yrotation
      JOINT RightHandPinky2
      {
        OFFSET 0.000 -3.050 -0.110
        CHANNELS 3 Zrotation Xrotation Yrotation
        JOINT RightHandPinky3
        {
          OFFSET 0.000 -1.980 -0.070
          CHANNELS 3 Zrotation Xrotation Yrotation
          End Site
          {
            OFFSET 0.000 -1.670 -0.060
          }
        }
      }
    }
  }
}
MOTION
Frames:	11
Frame Time:	0.00881923
0 0 0 0 0 0 -5.10133 16.58126 31.22439 -164.77324 82.45814 -104.89659 -10.85118 -32.73159 -3.30578 -7.28363 15.93307 0.39094 -1.95051 4.34686 0.25008 -7.85901 -10.74861 -1.47464 -20.22398 1.72871 -3.40947 -0.00002 -0.00000 -0.00000 -13.85853 -6.48570 -1.59624 -12.22473 -1.31552 -1.73828 -9.88541 -0.80582 -1.57569 -12.01854 2.54060 0.54069 -10.18156 -2.34259 0.04582 -2.56063 -0.59228 -0.01491 -13.97719 10.89618 2.69381 -3.48684 -1.53227 0.59897 -4.18985 -1.89727 0.57860 14.21071 20.12114 33.77927 -152.90587 85.09336 49.29330 8.80075 -41.31090 3.16589 8.44665 17.96233 0.65823 16.31267 28.73983 -6.95207 13.69651 -12.03249 2.90842 6.86159 0.47288 1.45581 2.72649 0.21572 0.56912 -1.24834 -3.17135 -0.06907 14.80365 -2.03892 1.37735 -0.00002 -0.00003 -0.00000 -3.13417 -0.16483 -0.00903 3.57443 -0.80589 0.06065 63.92263 -4.27656 10.62378 -7.75424 10.40696 1.40904 0.00007 0.00000 -0.00001 17.09666 -6.59341 -1.22192 
0 0 0 0 0 0 -5.12091 16.59906 31.23669 -164.09761 82.52199 -105.48638 -11.31530 -32.54891 -3.53065 -7.40319 16.24422 0.45029 -1.83013 4.09494 0.23842 -7.97446 -10.35398 -1.44211 -20.48666 1.74437 -3.37134 -0.00005 0.00000 -0.00001 -13.96385 -6.20092 -1.53843 -12.05935 -1.31137 -1.68149 -10.44353 -0.85224 -1.64267 -11.90034 2.72569 0.57410 -10.41590 -2.40009 0.05460 -2.30926 -0.53503 -0.01002 -13.81281 11.07170 2.70309 -3.46691 -1.52294 0.60160 -4.35905 -1.97582 0.60392 14.22453 19.89590 33.70833 -152.37376 85.12167 48.84611 8.87323 -41.92691 3.25445 8.33518 17.73911 0.72793 16.56885 29.14489 -7.04235 12.94836 -12.44670 2.83644 6.74161 0.45693 1.45331 2.56883 0.19951 0.54485 -1.58956 -3.26169 -0.09052 14.82961 -2.04403 1.39232 0.00002 -0.00001 0.00000 -4.05672 -0.46445 -0.03343 4.83966 -1.09113 0.12815 68.84286 -3.00250 11.45089 -8.30059 10.53347 1.52791 0.00002 0.00000 -0.00000 17.42103 -6.71461 -1.22874 
0 0 0 0 0 0 -5.15775 16.61193 31.24918 -163.33693 82.50284 -106.33738 -11.52061 -32.45014 -3.65486 -7.37548 16.25107 0.45922 -1.80876 4.06470 0.23766 -8.09391 -10.42429 -1.47396 -20.79921 1.78962 -3.39657 -0.00003 0.00000 -0.00000 -14.54999 -6.46356 -1.67409 -11.65745 -1.26740 -1.63431 -11.50138 -0.89714 -1.83500 -12.06269 2.57369 0.54970 -10.47512 -2.41206 0.04389 -2.19754 -0.50889 -0.01045 -13.93946 10.73237 2.64622 -3.59719 -1.58031 0.61035 -4.30640 -1.95024 0.58313 14.22929 19.58385 33.61394 -152.28789 85.16718 48.84558 8.66665 -42.25613 3.25672 8.25547 17.58148 0.78843 16.81077 29.51929 -7.13782 12.20272 -12.81586 2.74590 6.67847 0.44333 1.47011 2.58340 0.19756 0.56018 -1.82959 -3.21556 -0.10265 14.60188 -2.02248 1.36402 0.00001 -0.00000 0.00000 -4.63796 -0.55396 -0.04509 5.77170 -1.30127 0.18430 71.82767 -2.14796 11.91744 -8.59149 10.71530 1.60917 0.00002 0.00000 -0.00000 17.58166 -6.77366 -1.25973 
0 0 0 0 0 0 -5.48834 16.69536 31.29782 -162.15694 82.01807 -109.04008 -11.34722 -32.55819 -3.53785 -7.13200 15.75553 0.37872 -2.11030 4.73920 0.28381 -8.26559 -10.61773 -1.53327 -21.13749 1.86959 -3.47479 0.00012 -0.00001 0.00002 -15.14060 -6.85547 -1.84989 -10.85881 -1.15840 -1.59091 -13.49085 -0.93016 -2.25533 -12.31779 2.24209 0.48945 -10.03247 -2.29798 -0.00055 -2.11984 -0.48784 -0.01817 -14.15938 10.18179 2.55352 -3.87948 -1.70201 0.60399 -3.83834 -1.72713 0.47982 14.15863 18.12548 33.18187 -153.87109 85.35692 50.61829 8.38901 -42.50402 3.24108 8.10673 17.29580 0.91753 17.74693 30.76808 -7.66640 11.43022 -13.15400 2.63437 6.60181 0.41174 1.53358 2.96741 0.22102 0.67902 -2.01927 -3.14536 -0.11084 13.76701 -1.93776 1.24614 0.00001 -0.00001 0.00000 -5.10433 -0.64450 -0.05757 7.55414 -1.70213 0.31147 75.94392 -0.76350 12.54628 -8.82794 10.91843 1.68498 0.00003 0.00001 -0.00001 17.65040 -6.79418 -1.37794 
0 0 0 0 0 0 -5.43933 16.72617 31.31522 -166.64738 81.52891 -104.89714 -11.20182 -32.59757 -3.33211 -7.01502 15.39950 0.32383 -2.14606 4.78562 0.27576 -8.28007 -10.79193 -1.56088 -20.65368 1.82271 -3.47447 -0.00001 -0.00000 -0.00000 -15.09006 -7.17424 -1.92864 -11.33098 -1.17458 -1.73195 -11.77482 -0.82314 -2.01509 -12.37927 1.98101 0.43471 -9.52702 -2.17259 -0.02426 -2.65299 -0.60685 -0.03491 -14.12662 9.76815 2.44504 -3.75138 -1.63720 0.55933 -3.65193 -1.63121 0.43880 14.04444 17.55260 33.01033 -154.89250 85.39113 51.62891 8.13966 -42.68285 3.19269 8.10702 17.29058 0.94567 18.33849 31.41946 -8.07778 10.86069 -13.38371 2.54282 6.57243 0.39773 1.55369 3.35014 0.24925 0.77891 -2.10876 -3.07482 -0.11316 13.36526 -1.89354 1.18115 -0.00004 -0.00002 -0.00000 -5.41953 -0.71030 -0.06739 7.93030 -1.78729 0.34827 75.76849 -0.65395 12.57842 -8.99928 11.06329 1.74071 0.00005 0.00002 -0.00001 17.43351 -6.70744 -1.43676 
0 0 0 0 0 0 -5.23177 16.73709 31.36583 -169.91785 81.01003 -101.54478 -11.12013 -32.55942 -3.17043 -6.86920 15.01457 0.27522 -2.18954 4.85670 0.27102 -8.23828 -10.94400 -1.57450 -20.00850 1.74524 -3.44229 -0.00007 0.00001 -0.00001 -14.93811 -7.42395 -1.97433 -12.03697 -1.20978 -1.90540 -9.83087 -0.70665 -1.71125 -12.39402 1.80829 0.39731 -9.08065 -2.06504 -0.03416 -3.33788 -0.75998 -0.05694 -14.05226 9.43767 2.35023 -3.61402 -1.56949 0.52075 -3.67686 -1.63306 0.42349 13.92369 17.02288 32.84038 -155.43359 85.40006 52.13339 7.89753 -42.82977 3.12596 8.12485 17.31256 0.96706 18.99703 32.09111 -8.55379 10.39047 -13.56712 2.46300 6.48269 0.38025 1.55426 3.79863 0.28323 0.89400 -2.16110 -3.00161 -0.11322 13.00792 -1.85293 1.12215 -0.00002 -0.00001 -0.00000 -5.68097 -0.76546 -0.07614 8.24648 -1.85883 0.38078 75.36697 -0.61797 12.58818 -9.14922 11.18452 1.78933 0.00001 -0.00001 -0.00000 17.19160 -6.60987 -1.48695 
0 0 0 0 0 0 -5.18547 16.73119 31.37462 -170.20435 80.95000 -101.23666 -11.07641 -32.53598 -3.10621 -6.80875 14.86942 0.25726 -0.23627 0.52804 0.12987 -8.19955 -11.02093 -1.57786 -19.76622 1.71462 -3.42618 -0.00005 0.00001 -0.00001 -14.84635 -7.53759 -1.99141 -12.33045 -1.22445 -1.97376 -9.20421 -0.66707 -1.60925 -12.40916 1.74230 0.38329 -8.92712 -2.02898 -0.03463 -3.57516 -0.81293 -0.06501 -14.02990 9.29882 2.31218 -3.57806 -1.55194 0.51081 -3.73200 -1.65547 0.42324 13.90276 16.93517 32.81049 -155.47145 85.39785 52.16650 7.72545 -42.91704 3.06651 8.13506 17.32508 0.97327 19.29226 32.37378 -8.77327 10.14814 -13.66936 2.42207 6.41550 0.37199 1.54462 4.00560 0.29955 0.94614 -2.16925 -2.94479 -0.11149 12.89517 -1.83973 1.10242 0.00001 0.00000 0.00000 -5.85894 -0.78622 -0.08069 8.36190 -1.88481 0.39170 75.22294 -0.61343 12.58873 -9.24553 11.25601 1.81990 0.00002 -0.00001 -0.00000 17.09826 -6.57206 -1.50243 
0 0 0 0 0 0 -4.59083 16.57934 31.50765 -167.60049 81.04138 -102.93421 -11.09987 -32.50248 -3.28898 -6.70874 14.75116 0.24409 2.46556 -5.52981 0.15033 -8.19376 -10.97848 -1.57075 -19.41568 1.66174 -3.37366 0.00008 -0.00001 0.00001 -14.38473 -7.24490 -1.85252 -13.59306 -1.33563 -2.14090 -8.08429 -0.60909 -1.38537 -12.43968 1.89133 0.41712 -9.19259 -2.09403 -0.02547 -3.61584 -0.82458 -0.06217 -14.14325 9.65593 2.42021 -3.50403 -1.52538 0.52198 -4.20703 -1.87945 0.48700 13.69940 16.06803 32.50513 -155.77722 85.38387 52.43648 7.42650 -43.05437 2.95990 8.18278 17.38620 0.99677 20.56646 33.53865 -9.73587 9.99889 -13.75600 2.40064 6.00554 0.33296 1.46350 5.18217 0.40077 1.23082 -2.14123 -2.83145 -0.10582 12.41297 -1.78194 1.01598 0.00003 -0.00001 0.00000 -6.15982 -0.78008 -0.08419 8.83566 -1.99094 0.43131 74.38544 -0.68784 12.56025 -9.39369 11.36278 1.86685 -0.00010 -0.00004 0.00002 16.67636 -6.40072 -1.56176 
0 0 0 0 0 0 -4.48242 16.44868 31.51960 -161.85471 81.65826 -108.18147 -11.45455 -32.35292 -3.59478 -6.67340 14.84642 0.26943 2.28440 -5.19200 0.11687 -8.51898 -10.66812 -1.58835 -19.66310 1.68146 -3.30009 -0.00008 0.00001 -0.00001 -14.41039 -6.86099 -1.75817 -13.47257 -1.35972 -2.03072 -9.50351 -0.71006 -1.58341 -12.41637 2.11670 0.46590 -9.68702 -2.21507 -0.00815 -2.97213 -0.68179 -0.03791 -14.21798 10.04136 2.52956 -3.29978 -1.44097 0.52018 -4.19702 -1.88354 0.52182 13.60323 15.64232 32.33964 -156.12633 85.39295 52.71601 7.22719 -43.13459 2.89732 8.21357 17.43686 1.00548 21.39862 34.25274 -10.38822 10.72591 -13.54330 2.53989 0.00007 0.00002 0.00002 7.00477 0.43534 1.67263 -2.08549 -2.75867 -0.10042 12.12019 -1.74538 0.96776 0.00007 0.00004 0.00000 -6.35162 -0.74580 -0.08301 9.13413 -2.05687 0.45122 73.64001 -0.81681 12.50808 -9.48529 11.43099 1.89654 -0.00002 -0.00001 0.00000 16.40818 -6.29187 -1.58980 
0 0 0 0 0 0 -4.55088 16.33152 31.47910 -159.38887 81.59837 -111.34354 -11.30221 -32.50645 -3.71408 -6.48250 14.50338 0.20365 2.00697 -4.58351 0.09897 -8.56552 -10.92846 -1.63564 -20.05228 1.77072 -3.43863 -0.00005 0.00001 -0.00001 -14.99027 -7.06804 -1.88711 -12.67424 -1.27642 -1.94073 -10.28775 -0.73703 -1.74499 -12.71613 2.01975 0.45566 -9.44357 -2.15872 -0.01468 -3.07083 -0.70379 -0.04255 -14.43316 9.86847 2.52570 -3.74175 -1.64023 0.56557 -4.05001 -1.82122 0.48153 13.51249 15.24702 32.17530 -156.79813 85.39611 53.28943 7.04369 -43.19030 2.84555 8.25200 17.50930 1.00821 22.19261 34.89456 -11.02940 11.50643 -13.31995 2.68520 0.00001 0.00001 0.00001 8.93432 0.64834 2.07478 -2.01191 -2.69478 -0.09463 11.83996 -1.70954 0.92377 0.00003 -0.00000 0.00000 -6.50769 -0.68931 -0.07863 9.44954 -2.12561 0.46909 72.82977 -0.97565 12.43729 -9.55364 11.48353 1.91910 -0.00001 -0.00000 0.00000 16.12710 -6.17790 -1.61119 
0 0 0 0 0 0 -4.56438 16.32919 31.47359 -159.60457 81.59449 -111.21489 -11.12267 -32.62644 -3.63302 -6.44542 14.39671 0.18224 0.40921 -0.95045 0.06570 -8.60208 -11.02558 -1.65715 -20.05910 1.78036 -3.45941 -0.00002 0.00000 -0.00000 -15.20776 -7.17751 -1.94543 -12.46683 -1.25437 -1.91935 -10.14281 -0.72842 -1.72658 -12.81223 1.92254 0.43708 -9.30486 -2.12540 -0.01875 -3.14645 -0.72025 -0.04610 -14.52128 9.73620 2.50802 -3.79310 -1.66298 0.56617 -4.00489 -1.80022 0.47038 13.49754 15.18734 32.14884 -157.02879 85.39870 53.49749 6.95465 -43.21731 2.83902 8.26657 17.54422 1.00741 22.47319 35.11777 -11.26388 11.87063 -13.22153 2.75228 0.00002 0.00001 0.00001 9.51277 0.72001 2.18992 -1.96577 -2.67009 -0.09162 11.74163 -1.69682 0.91040 0.00000 0.00000 0.00000 -6.57663 -0.65437 -0.07543 9.57440 -2.15254 0.47659 72.47543 -1.04237 12.40433 -9.58531 11.51740 1.93118 0.00001 0.00001 -0.00000 16.02387 -6.13628 -1.61825 
